<?xml version="1.0" encoding="UTF-8" standalone="no"?>
<svg width="22px" height="22px" viewBox="0 0 22 22" version="1.1" xmlns="http://www.w3.org/2000/svg" xmlns:xlink="http://www.w3.org/1999/xlink">
    <!-- Generator: Sketch 41 (35326) - http://www.bohemiancoding.com/sketch -->
    <title>Fill 1</title>
    <desc>Created with Sketch.</desc>
    <defs></defs>
    <g id="Page-1" stroke="none" stroke-width="1" fill="none" fill-rule="evenodd">
        <g id="Artboard" transform="translate(-1229.000000, -25.000000)" stroke-width="0.5" stroke="#FFFFFF" fill="#3A444C">
            <g id="Group-5">
                <g id="Group-19" transform="translate(1230.000000, 25.000000)">
                    <path d="M19.9424369,12.0588744 C19.8090762,13.3164056 19.4431097,14.5166307 18.843737,15.6382477 C18.7724045,15.7721617 18.7057742,15.9107761 18.6198351,16.0353891 C18.2191528,16.6152496 17.7498393,16.7757664 17.2725221,16.5052381 C16.7858007,16.2287093 16.7038634,15.7708615 16.9497753,15.1190936 C17.3098391,14.164094 17.771149,13.2184953 17.9431272,12.2267919 C18.6804627,7.96504743 15.8971964,4.0078347 11.5945387,3.07813774 C7.51198116,2.19514565 3.27535354,4.73821088 2.20936853,8.80603514 C1.33607119,12.1361825 2.2200734,15.0377851 4.87668213,17.2203127 C7.49527356,19.3715371 10.4572212,19.6447656 13.5545305,18.2406191 C13.7972409,18.1306077 14.0165407,17.9700909 14.2625526,17.8700805 C14.7391695,17.6761603 15.164463,17.7547685 15.4692016,18.1993148 C15.7598339,18.623159 15.6604887,19.1336123 15.1851724,19.4994504 C14.9165502,19.706072 14.6052085,19.8646885 14.2971684,20.0126039 C7.70266793,23.1728335 0.0253748312,18.3619318 6.33147465e-05,11.0558698 C-0.0199457892,5.3453742 4.70530415,0.745694473 10.3199588,1.01092214 C16.2051365,1.28885112 20.5551157,6.2743711 19.9424369,12.0588744 M9.26998104,9.58911681 C9.47927627,9.50180771 9.70257787,9.44250152 9.92457887,9.39319638 C10.9672533,9.1632724 11.4978947,9.64512265 11.2751934,10.6847311 C11.0691997,11.6483316 10.766562,12.5913299 10.5365573,13.55033 C10.4799316,13.7842544 10.4679261,14.0800852 10.5625692,14.2907072 C11.0906094,15.4696301 10.8879172,15.8987749 9.61793936,16.1654027 C9.46927171,16.1960059 9.31860316,16.216008 9.21125432,16.2340099 C8.41329125,16.2413106 7.99059893,15.7355579 8.16727932,14.9517761 C8.36797063,14.0641835 8.62258648,13.1884922 8.87129964,12.3121008 C8.99795727,11.8662543 9.0665885,11.4904151 8.76665203,11.0318673 C8.34666094,10.3888002 8.57456463,9.8776469 9.26998104,9.58911681 M10.7379489,5.72451375 C11.335921,5.70451166 11.9118831,6.2743711 11.8991773,6.87413365 C11.8872719,7.44659335 11.3892453,7.94574541 10.8078808,7.9657475 C10.210609,7.98634965 9.71528365,7.54250336 9.66856239,6.94474101 C9.61923995,6.31367519 10.1172665,5.74521591 10.7379489,5.72451375" id="Fill-1"></path>
                </g>
            </g>
        </g>
    </g>
</svg>