<?xml version="1.0" encoding="UTF-8" standalone="no"?>
<svg width="254px" height="74px" viewBox="0 0 254 74" version="1.1" xmlns="http://www.w3.org/2000/svg" xmlns:xlink="http://www.w3.org/1999/xlink" xmlns:sketch="http://www.bohemiancoding.com/sketch/ns">
    <!-- Generator: Sketch 3.2 (9961) - http://www.bohemiancoding.com/sketch -->
    <title>Group</title>
    <desc>Created with Sketch.</desc>
    <defs></defs>
    <g id="Page-1" stroke="none" stroke-width="1" fill="none" fill-rule="evenodd" sketch:type="MSPage">
        <g id="logo-check" sketch:type="MSLayerGroup" transform="translate(-53.000000, -14.000000)" fill="#02C28C">
            <g id="Group" transform="translate(53.000000, 14.000000)" sketch:type="MSShapeGroup">
                <g id="Shape">
                    <path d="M40.071,26.295 C36.642,23.664 34.631,19.707 31.033,17.617 C25.247,14.255 18.443,18.747 18.38,25.828 C18.306,34.138 18.371,32.388 18.36,40.698 C18.347,50.913 12.665,59.695 2.618,61.657 C0.771,62.018 0.115,61.782 0.132,59.648 C0.244,45.314 0.012,41.036 0.278,26.706 C0.532,13.006 11.114,1.599 23.959,0.598 C38.908,-0.566 50.966,8.267 53.478,22.672 C55.26,32.891 51.8,41.445 43.924,48.192 C43.067,48.926 42.226,49.758 41.026,48.575 C37.622,45.217 34.25,39.857 32.543,35.225 C31.582,32.618 31.577,30.116 33.344,27.871 C35.081,25.665 37.401,25.686 40.071,26.295 L40.071,26.295 Z"></path>
                    <path d="M29.363,23.657 C29.303,24.983 28.612,25.823 27.252,25.768 C25.94,25.715 25.117,24.87 25.177,23.536 C25.228,22.402 25.904,21.649 27.148,21.605 C28.546,21.555 29.261,22.251 29.363,23.657 L29.363,23.657 Z"></path>
                </g>
                <g transform="translate(62.000000, 6.000000)" id="Shape">
                    <path d="M122.985,67.399 C108.472,67.399 106.305,60.059 106.305,55.683 L106.305,55.054 C106.305,52.025 107.556,49.005 109.739,46.768 L110.153,46.344 L109.663,46.011 C107.196,44.334 107.004,41.38 107.004,40.514 C107.004,38.621 107.782,36.842 109.14,35.632 L109.504,35.308 L109.187,34.938 C107.459,32.923 106.655,30.496 106.655,27.301 L106.655,26.741 C106.655,15.031 117.928,13.767 122.775,13.767 L138.083,13.767 C139.28,13.767 140.292,14.746 140.292,15.905 L140.292,17.723 C140.292,18.815 139.736,19.425 138.541,19.643 L137.06,19.93 L137.429,20.539 C138.416,22.17 138.895,24.199 138.895,26.741 L138.895,27.301 C138.895,35.631 133.471,39.855 122.776,39.855 C119.619,39.855 117.194,39.468 114.913,38.6 L114.681,38.512 L114.471,38.644 C113.618,39.181 113.519,39.808 113.519,40.233 C113.519,41.034 113.785,41.51 115.237,41.888 L125.649,44.544 C131.831,46.121 139.525,48.083 139.525,55.402 L139.525,55.961 C139.524,63.551 133.96,67.399 122.985,67.399 L122.985,67.399 Z M116.299,48.765 C114.583,50.336 113.519,51.937 113.519,55.054 L113.519,55.683 C113.519,58.532 114.643,61.444 122.985,61.444 C130.668,61.444 132.171,59.434 132.171,55.963 L132.171,55.404 C132.171,53.201 130.435,52.154 124.094,50.533 L116.498,48.583 L116.299,48.765 L116.299,48.765 Z M122.775,19.862 C114.942,19.862 113.938,23.538 113.938,26.741 L113.938,27.301 C113.938,31.634 116.911,33.831 122.775,33.831 C129.051,33.831 131.611,31.939 131.611,27.301 L131.611,26.741 C131.612,23.539 130.608,19.862 122.775,19.862 L122.775,19.862 Z"></path>
                    <path d="M175.486,53.906 C169.335,53.906 159.016,51.648 159.016,36.529 L159.016,30.237 C159.016,19.618 165.042,13.278 175.136,13.278 C185.142,13.278 191.117,19.618 191.117,30.237 L191.117,34.012 C191.117,35.291 190.342,36.15 189.188,36.15 L166.369,36.15 L166.371,36.649 C166.399,44.131 169.126,47.322 175.488,47.322 C179.81,47.322 184.89,47.009 187.841,46.56 L188.281,46.554 C189.293,46.554 189.999,47.203 189.999,48.133 L189.999,50.51 C189.999,51.785 189.417,52.463 188.111,52.708 C183.812,53.537 179.92,53.906 175.486,53.906 L175.486,53.906 Z M175.136,19.862 C169.366,19.862 166.5,23.1 166.374,29.759 L166.364,30.265 L183.698,30.265 L183.69,29.761 C183.582,22.823 181.024,19.862 175.136,19.862 L175.136,19.862 Z"></path>
                    <path d="M0.003,9.922 C0.003,8.678 0.358,7.777 1.07,7.221 C1.781,6.665 2.76,6.387 4.005,6.387 C4.806,6.387 5.55,6.487 6.24,6.687 C6.929,6.887 7.385,7.032 7.608,7.121 L7.608,15.861 L17.282,15.861 C18.75,15.861 19.784,16.161 20.384,16.761 C20.985,17.362 21.285,18.24 21.285,19.396 C21.285,20.154 21.174,20.853 20.952,21.498 C20.729,22.143 20.552,22.598 20.418,22.866 L7.609,22.866 L7.609,37.743 C7.609,38.9 7.764,39.845 8.076,40.579 C8.387,41.313 8.821,41.903 9.377,42.347 C9.933,42.792 10.578,43.104 11.312,43.281 C12.046,43.459 12.813,43.548 13.613,43.548 C14.903,43.548 16.104,43.348 17.216,42.947 C18.327,42.547 19.128,42.17 19.618,41.813 L22.687,46.883 C22.33,47.15 21.83,47.484 21.186,47.884 C20.541,48.285 19.751,48.663 18.817,49.018 C17.883,49.374 16.837,49.674 15.681,49.919 C14.524,50.163 13.256,50.286 11.878,50.286 C7.963,50.286 5.006,49.275 3.005,47.251 C1.004,45.228 0.003,42.57 0.003,39.278 L0.003,9.922 L0.003,9.922 Z"></path>
                    <path d="M25.602,27.802 C25.602,23.71 26.858,20.542 29.372,18.295 C31.884,16.049 35.365,14.926 39.813,14.926 C42.615,14.926 44.894,15.316 46.651,16.093 C48.408,16.871 49.286,18.062 49.286,19.662 C49.286,20.419 49.075,21.153 48.652,21.864 C48.229,22.576 47.885,23.021 47.618,23.199 C46.861,22.843 45.928,22.509 44.816,22.198 C43.704,21.887 42.436,21.731 41.013,21.731 C35.81,21.731 33.208,24.489 33.208,30.004 L33.208,49.352 L25.602,49.352 L25.602,27.802 L25.602,27.802 Z"></path>
                    <path d="M57.464,0.848 C58.754,0.848 59.843,1.294 60.733,2.183 C61.622,3.073 62.067,4.163 62.067,5.452 C62.067,6.743 61.622,7.832 60.733,8.721 C59.843,9.611 58.753,10.055 57.464,10.055 C56.174,10.055 55.084,9.611 54.195,8.721 C53.304,7.832 52.86,6.742 52.86,5.452 C52.86,4.162 53.304,3.073 54.195,2.183 C55.084,1.294 56.173,0.848 57.464,0.848 L57.464,0.848 Z M53.661,19.396 C53.661,18.151 54.016,17.251 54.728,16.694 C55.439,16.139 56.439,15.861 57.73,15.861 C58.53,15.861 59.264,15.961 59.932,16.161 C60.599,16.361 61.043,16.506 61.266,16.595 L61.266,49.353 L53.66,49.353 L53.66,19.396 L53.661,19.396 Z"></path>
                    <path d="M66.592,34.14 C66.592,31.027 67.036,28.28 67.927,25.9 C68.816,23.522 70.062,21.52 71.663,19.896 C73.264,18.273 75.199,17.039 77.467,16.193 C79.736,15.349 82.248,14.926 85.006,14.926 C87.542,14.926 89.876,15.371 92.011,16.26 C94.146,17.15 96.003,18.373 97.582,19.93 C99.161,21.487 100.395,23.355 101.285,25.534 C102.174,27.714 102.62,30.071 102.62,32.606 C102.62,35.187 102.186,37.555 101.319,39.712 C100.451,41.87 99.251,43.727 97.716,45.283 C96.182,46.84 94.38,48.052 92.312,48.919 C90.244,49.786 87.986,50.22 85.541,50.22 C83.005,50.22 80.759,49.731 78.802,48.753 C76.844,47.775 75.309,46.574 74.199,45.15 L74.199,62.696 L66.593,62.696 L66.593,34.14 L66.592,34.14 Z M84.472,43.481 C85.983,43.481 87.373,43.204 88.641,42.647 C89.909,42.092 90.998,41.324 91.91,40.346 C92.821,39.368 93.522,38.211 94.011,36.876 C94.5,35.541 94.746,34.097 94.746,32.539 C94.746,31.028 94.501,29.616 94.011,28.303 C93.522,26.991 92.821,25.857 91.91,24.9 C90.998,23.944 89.909,23.189 88.641,22.632 C87.373,22.076 85.983,21.798 84.472,21.798 C82.959,21.798 81.57,22.065 80.302,22.598 C79.034,23.132 77.944,23.866 77.033,24.8 C76.121,25.734 75.409,26.857 74.898,28.169 C74.387,29.482 74.132,30.938 74.132,32.539 C74.132,34.097 74.387,35.541 74.898,36.876 C75.409,38.211 76.11,39.368 77,40.346 C77.889,41.325 78.968,42.092 80.235,42.647 C81.503,43.203 82.914,43.481 84.472,43.481 L84.472,43.481 Z"></path>
                    <path d="M146.585,49.388 L146.585,5.473 C146.585,4.453 146.865,3.729 147.441,3.26 C148.04,2.774 148.917,2.528 150.049,2.528 C150.777,2.528 151.45,2.619 152.049,2.799 C152.448,2.919 152.763,3.017 152.993,3.094 L152.993,49.388 L146.585,49.388 L146.585,49.388 Z"></path>
                </g>
            </g>
        </g>
    </g>
</svg>